<?xml version="1.0" encoding="UTF-8" standalone="no"?>
<svg
   width="405"
   height="279"
   viewBox="0 0 405 279"
   role="img"
   aria-labelledby="title desc"
   version="1.1"
   id="svg42"
   sodipodi:docname="logo_v0.2.svg"
   inkscape:version="1.2.2 (b0a8486541, 2022-12-01)"
   xmlns:inkscape="http://www.inkscape.org/namespaces/inkscape"
   xmlns:sodipodi="http://sodipodi.sourceforge.net/DTD/sodipodi-0.dtd"
   xmlns="http://www.w3.org/2000/svg"
   xmlns:svg="http://www.w3.org/2000/svg">
  <sodipodi:namedview
     id="namedview44"
     pagecolor="#ffffff"
     bordercolor="#000000"
     borderopacity="0.25"
     inkscape:showpageshadow="2"
     inkscape:pageopacity="0.0"
     inkscape:pagecheckerboard="0"
     inkscape:deskcolor="#d1d1d1"
     showgrid="false"
     inkscape:zoom="1.9895299"
     inkscape:cx="86.955216"
     inkscape:cy="69.111805"
     inkscape:window-width="1854"
     inkscape:window-height="1011"
     inkscape:window-x="0"
     inkscape:window-y="0"
     inkscape:window-maximized="1"
     inkscape:current-layer="icon" />
  <title
     id="title">pyanalogs logo</title>
  <desc
     id="desc">A clean vector logo showing a geophysical contour map, an orange query point, blue analog points, and a curved arrow suggesting analog forecasting.</desc>
  <defs
     id="defs7">
    <marker
       style="overflow:visible"
       id="RoundedArrow"
       refX="0"
       refY="0"
       orient="auto-start-reverse"
       inkscape:stockid="RoundedArrow"
       markerWidth="5"
       markerHeight="4.1666665"
       viewBox="0 0 6.1347524 5.9304951"
       inkscape:isstock="true"
       inkscape:collect="always"
       preserveAspectRatio="xMidYMid">
      <path
         transform="scale(0.7)"
         d="m -0.21114562,-4.1055728 6.42229122,3.21114561 a 1,1 90 0 1 0,1.78885438 L -0.21114562,4.1055728 A 1.236068,1.236068 31.717474 0 1 -2,3 v -6 a 1.236068,1.236068 148.28253 0 1 1.78885438,-1.1055728 z"
         style="fill:context-stroke;fill-rule:evenodd;stroke:none"
         id="path1367" />
    </marker>
    <marker
       id="arrowhead"
       markerWidth="34"
       markerHeight="28"
       refX="28"
       refY="14"
       orient="auto"
       markerUnits="userSpaceOnUse">
      <path
         d="M 0,0 30,14 0,28 Z"
         fill="#0b376d"
         id="path4" />
    </marker>
  </defs>
  <g
     id="icon"
     transform="translate(64,24)">
    <rect
       x="38"
       y="30"
       width="197"
       height="125"
       rx="8"
       ry="8"
       fill="#FFFFFF"
       stroke="#0B376D"
       stroke-width="5"
       id="rect9" />
    <g
       id="contours"
       fill="none"
       stroke="#078DD6"
       stroke-width="3"
       stroke-linecap="round"
       stroke-linejoin="round">
      <path
         d="M 41.891719,55.899651 C 59.180513,52.333006 63.396307,44.153095 68.613316,34.915098"
         id="path11"
         sodipodi:nodetypes="cc" />
      <path
         d="M 95.371014,91.844701 C 86.018388,73.236336 113.64906,53.205988 122.0311,49.545531 c 8.71188,-4.298167 35.85644,-8.69685 51.33899,-0.314465"
         id="path13"
         sodipodi:nodetypes="ccc" />
      <path
         d="m 47.031942,133.71993 c 27.25724,14.52102 104.817258,17.34886 126.029678,-11.784 14.289,-12.38101 36.0738,-23.608495 57.89989,-15.29652"
         id="path15"
         sodipodi:nodetypes="ccc" />
      <path
         d="m 79.007972,117.90446 c 27.492658,9.40715 65.240948,8.68025 84.751468,-11.52598 C 181.28384,87.416791 210.81,73.450131 230.81,65.450131"
         id="path17"
         sodipodi:nodetypes="ccc" />
      <path
         d="M 96.741324,38.338978 C 92.033776,48.099885 80.115171,54.70806 70.909323,62.806907 52.808226,78.731351 51.716205,98.499553 64.252719,107.16997"
         id="path19"
         sodipodi:nodetypes="csc" />
      <path
         d="m 187.28482,149.91944 c 12,-10 31.37663,-16.15014 43.37663,-13.15014"
         id="path21"
         sodipodi:nodetypes="cc" />
    </g>
    <path
       d="M -15.01665,129.62915 C 40.458947,127.47402 84.854429,111.46191 134,84 c 16.77721,-14.657347 46.72381,-19.623358 78.22572,-31.676205 24.43554,-9.349207 41.078,-20.411759 63.59222,-41.469784"
       fill="none"
       stroke="#0b376d"
       stroke-width="8"
       stroke-linecap="round"
       stroke-linejoin="round"
       marker-end="url(#arrowhead)"
       id="path24"
       sodipodi:nodetypes="ccsc"
       style="marker-end:url(#RoundedArrow)" />
    <circle
       cx="134"
       cy="86"
       r="18"
       fill="#FF7A2A"
       stroke="#E65E12"
       stroke-width="2"
       id="circle26" />
    <circle
       cx="74"
       cy="64"
       r="14"
       fill="#24AEEB"
       stroke="#078DD6"
       stroke-width="2"
       id="circle28" />
    <circle
       cx="190"
       cy="59"
       r="14"
       fill="#24AEEB"
       stroke="#078DD6"
       stroke-width="2"
       id="circle30" />
    <circle
       cx="182"
       cy="118"
       r="14"
       fill="#24AEEB"
       stroke="#078DD6"
       stroke-width="2"
       id="circle32" />
  </g>
  <g
     id="wordmark"
     transform="translate(25.917199,242.17076)">
    <text
       x="-6"
       y="0"
       class="word-py"
       font-size="65px"
       id="text4989"
       style="font-weight:800;font-family:'DejaVu Sans', Arial, Helvetica, sans-serif;fill:#18aeea">py</text>
    <text
       x="77"
       y="0"
       class="word-analogs"
       font-size="65px"
       id="text4991"
       style="font-weight:800;font-family:'DejaVu Sans', Arial, Helvetica, sans-serif;fill:#0b376d">analogs</text>
  </g>
</svg>
